<svg xmlns="http://www.w3.org/2000/svg" xmlns:xlink="http://www.w3.org/1999/xlink" viewBox="0 0 154.01 39.03"><defs><style>.cls-1{filter:url(#filter);}.cls-2{fill:#dd4b94;}</style><filter id="filter"><feOffset dx="0.93" dy="0.93" input="SourceAlpha"/><feGaussianBlur stdDeviation="2.79" result="blur"/><feFlood flood-color="#90b4be"/><feComposite operator="in" in2="blur"/><feComposite in="SourceGraphic"/></filter></defs><g id="圖層_2" data-name="圖層 2"><g id="PDP"><g class="cls-1"><path class="cls-2" d="M35,28.72a2.21,2.21,0,0,1,1.63.69,2.4,2.4,0,0,1,0,3.33,2.21,2.21,0,0,1-1.63.69h-.52c-.19,0-.28.11-.28.32v2.88a2.32,2.32,0,0,1-.69,1.71,2.29,2.29,0,0,1-1.66.69h-.19A2.23,2.23,0,0,1,30,38.34a2.35,2.35,0,0,1-.68-1.71V33.75a.29.29,0,0,0-.32-.32H23.85a2.21,2.21,0,0,1-1.63-.69,2.29,2.29,0,0,1-.67-1.66v-.25a2.1,2.1,0,0,1,.59-1.48,2,2,0,0,1,1.48-.63.21.21,0,0,0,.23-.24V24.14c0-.06,0-.08-.08-.08h-.31c-.19,0-.28-.11-.28-.33q-2.36,9.33-8.43,13.92a2,2,0,0,1-1.19.4A1.69,1.69,0,0,1,13,38a2.28,2.28,0,0,1-1.47-1,.88.88,0,0,1-.12-.17,2.07,2.07,0,0,1-.4-1.25,2.76,2.76,0,0,1,0-.37,2.05,2.05,0,0,1,.84-1.46,16.46,16.46,0,0,0,3.77-4.05.37.37,0,0,0,0-.49c-.37-.38-.8-.79-1.31-1.22a.2.2,0,0,0-.32,0,2.2,2.2,0,0,1-.23.29,1.38,1.38,0,0,1-1.08.56h-.2a1.77,1.77,0,0,1-1-.32c-.11-.08-.16-.06-.16.08v1.05a2.29,2.29,0,0,1-.7,1.71A2.25,2.25,0,0,1,9,32H5.25a.29.29,0,0,0-.32.32v.85a2.35,2.35,0,0,1-.68,1.71,2.23,2.23,0,0,1-1.67.69H2.35A2.25,2.25,0,0,1,.7,34.85,2.29,2.29,0,0,1,0,33.14V3.93a2.29,2.29,0,0,1,.7-1.7,2.25,2.25,0,0,1,1.65-.69H9a2.25,2.25,0,0,1,1.65.69,2.29,2.29,0,0,1,.7,1.7v19.6a.09.09,0,0,0,.06.1s.07,0,.1-.06a23,23,0,0,0,2.34-5.19c.06-.14,0-.21-.11-.21a1.37,1.37,0,0,1-1.06-.44,1.49,1.49,0,0,1-.41-1.06V13.06a2.34,2.34,0,0,1,.67-1.7,2.25,2.25,0,0,1,1.67-.69h1.19a.19.19,0,0,0,.18-.1.17.17,0,0,0,0-.18c-.18-.41-.38-.82-.59-1.22a2.21,2.21,0,0,1-.28-1.06,2.46,2.46,0,0,1,.08-.65,2.19,2.19,0,0,1,1.07-1.33c0-.09,0-.13,0-.13a3.06,3.06,0,0,1-.56,0h0a2.33,2.33,0,0,1-1.55-.56,3,3,0,0,1-1-1.46A2.13,2.13,0,0,1,13,3.49a1.49,1.49,0,0,1,.28-.89,1.43,1.43,0,0,1,1.19-.69A101.88,101.88,0,0,0,30.37.08,5.33,5.33,0,0,1,31.25,0a4.17,4.17,0,0,1,3,1.3l.2.28a1.31,1.31,0,0,1,.4.93,1.53,1.53,0,0,1-.08.45,1.28,1.28,0,0,1-1,1c-.66.17-1.33.32-2,.45t-.06.06s0,.08.06.1l2.1.77a1.83,1.83,0,0,1,1.12,1.18A2.77,2.77,0,0,1,35,7.1a1.83,1.83,0,0,1-.32,1C34,9.22,33.44,10,33.12,10.43a.15.15,0,0,0,0,.16.12.12,0,0,0,.12.08h1.23a2.25,2.25,0,0,1,1.65.69,2.32,2.32,0,0,1,.7,1.7v2.76a2.27,2.27,0,0,1-.68,1.66,2.16,2.16,0,0,1-1.63.69.29.29,0,0,0-.32.33v.65c0,.19.11.28.32.28a2.19,2.19,0,0,1,1.61.67,2.23,2.23,0,0,1,.66,1.62,2.3,2.3,0,0,1-.66,1.65,2.13,2.13,0,0,1-1.61.69c-.21,0-.32.09-.32.28v4.1c0,.19.11.28.32.28ZM6.32,6.9c0-.19-.09-.29-.28-.29H5.25c-.21,0-.32.1-.32.29V9.7a.29.29,0,0,0,.32.32H6c.19,0,.28-.11.28-.32Zm-1.07,8a.29.29,0,0,0-.32.32V18c0,.19.11.29.32.29H6c.19,0,.28-.1.28-.29v-2.8c0-.21-.09-.32-.28-.32ZM4.93,26.57c0,.19.11.29.32.29H6c.19,0,.28-.1.28-.29v-3c0-.22-.09-.32-.28-.32H5.25a.28.28,0,0,0-.32.32Zm13.8-3.89a.37.37,0,0,0-.06-.21.22.22,0,0,0-.18-.08h-1a.48.48,0,0,0-.43.29c-.19.43-.42.89-.68,1.38a.32.32,0,0,0,.12.44c.24.17.6.44,1.07.81.16.11.27.07.32-.12C18.26,24.19,18.54,23.35,18.73,22.68Zm.87-4.51a12.07,12.07,0,0,1,3,.29l1,.28a.5.5,0,0,1,.39.61c0,.06,0,.08,0,.08h5c.19,0,.28-.08.28-.24a2,2,0,0,1,.58-1.44,1.89,1.89,0,0,1,1.41-.59h0a.25.25,0,0,0,.28-.28V15.46a.29.29,0,0,0-.32-.33H17.49a.29.29,0,0,0-.32.33v.6c0,.14.08.22.24.25l.28.08a1.17,1.17,0,0,1,.9.57A1.28,1.28,0,0,1,18.73,18c-.06.11,0,.16.11.16ZM22.42,8.8a2.24,2.24,0,0,1-.24-1A2.33,2.33,0,0,1,22.34,7a2.07,2.07,0,0,1,1.12-1.3l.08,0s0,0,0,0a.07.07,0,0,0-.06,0c-1.41.13-2.85.24-4.34.32A.17.17,0,0,0,19,6a.16.16,0,0,0,0,.17c.37.62.72,1.23,1,1.82a1.8,1.8,0,0,1,.24.85,1.54,1.54,0,0,1-.12.61,2.06,2.06,0,0,1-1,1.14s0,0,0,.12h3.58a.23.23,0,0,0,.2-.1.19.19,0,0,0,0-.18A13.55,13.55,0,0,0,22.42,8.8Zm7,1.87s0,0,0,0,0,0,0,0A1.09,1.09,0,0,1,29,9.17a38.44,38.44,0,0,0,2-4.38.15.15,0,0,0,0-.17.16.16,0,0,0-.18,0c-1.46.25-3,.46-4.61.65a.17.17,0,0,0-.16.1.21.21,0,0,0,0,.19c.29.48.56,1,.8,1.46A2.24,2.24,0,0,1,27,8a2.65,2.65,0,0,1-.16.85,2.44,2.44,0,0,1-1.28,1.38l-.59.33q-.09,0-.06.06s0,.06.06.06ZM28.07,28.44a.24.24,0,0,0,.28.28H29c.21,0,.32-.09.32-.28v-4.1c0-.19-.11-.28-.32-.28h-.67a.24.24,0,0,0-.28.28Z"/><path class="cls-2" d="M55.38,26.22a2.08,2.08,0,0,1-.62,1.5,2,2,0,0,1-1.47.64H49.17c-.19,0-.28.08-.28.25V29a2.07,2.07,0,0,1-.61,1.53,2,2,0,0,1-1.49.61h-.46a2,2,0,0,1-1.47-.61A2.08,2.08,0,0,1,44.24,29V8.62a2.08,2.08,0,0,1,.62-1.5,2,2,0,0,1,1.47-.63h7a2,2,0,0,1,1.47.63,2.08,2.08,0,0,1,.62,1.5ZM50.66,11.74c0-.17-.09-.26-.28-.26H49.17c-.19,0-.28.09-.28.26V23.11c0,.17.09.25.28.25h1.21c.19,0,.28-.08.28-.25ZM72.2,14.53a11.86,11.86,0,0,1,3.41.39,2,2,0,0,1,1.13.95A2.08,2.08,0,0,1,77,16.92a2.2,2.2,0,0,1,0,.36A34,34,0,0,1,72.13,30.2a.27.27,0,0,0,.07.4,19.69,19.69,0,0,0,4,2.43,1.43,1.43,0,0,1,.86,1,1.53,1.53,0,0,1,.07.4,1.59,1.59,0,0,1-.32.94c-.36.46-.69.93-1,1.41a2.53,2.53,0,0,1-1.34,1.05,2.2,2.2,0,0,1-.68.11,2.08,2.08,0,0,1-1-.25,19.72,19.72,0,0,1-4.26-3,.27.27,0,0,0-.38,0A21.52,21.52,0,0,1,64,37.48a2.17,2.17,0,0,1-1,.22,2.5,2.5,0,0,1-.71-.11A2.75,2.75,0,0,1,61,36.54l-.85-1.16a1.43,1.43,0,0,1-.35-.94,3,3,0,0,1,0-.4,1.4,1.4,0,0,1,.85-1,20.29,20.29,0,0,0,4-2.43.27.27,0,0,0,.07-.4,31.34,31.34,0,0,1-2.66-5.07.12.12,0,0,0-.09,0s-.06,0-.09.07q-1.84,7.94-6,12.06a1.86,1.86,0,0,1-1.32.54l-.17,0A2.28,2.28,0,0,1,52.9,37c-.24-.26-.49-.52-.75-.76a1.94,1.94,0,0,1,0-2.79,16.43,16.43,0,0,0,3.15-4.52,22.55,22.55,0,0,0,1.87-5.87A60.61,60.61,0,0,0,58,17q.21-2.89.24-6.55c0-.17-.09-.26-.28-.26a2,2,0,0,1-1.47-.63A2,2,0,0,1,55.88,8v-.8a2,2,0,0,1,.62-1.52A2,2,0,0,1,58,5.08h9.65a.93.93,0,0,0,.22,0,4.19,4.19,0,0,1,1-.11,3.12,3.12,0,0,1,.54,0l1.06.11a1.63,1.63,0,0,1,1.24.68A1.87,1.87,0,0,1,72,6.92v.22q-.31,2.67-1,7.1c0,.19.06.29.25.29ZM66.59,10.4c0-.17,0-.26-.21-.26H63.79c-.19,0-.28.09-.28.26q0,1.18-.18,3.33a2.11,2.11,0,0,0,.07.54,32.24,32.24,0,0,0,4.79,12,.14.14,0,0,0,.28,0,22.63,22.63,0,0,0,2.77-6.73.17.17,0,0,0,0-.18.17.17,0,0,0-.16-.08h-.81s0,0-.07.08a.49.49,0,0,1-.57.43l-2.38-.25a1.9,1.9,0,0,1-1.35-.8,1.85,1.85,0,0,1-.39-1.16,1.47,1.47,0,0,1,0-.36C65.93,15,66.29,12.71,66.59,10.4Z"/><path class="cls-2" d="M113.54,28.88a2,2,0,0,1-.57,1.43,1.89,1.89,0,0,1-1.41.58h-1.23s0,0-.07.07,0,.08,0,.1c1.47,1.19,2.76,2.3,3.85,3.35a1.43,1.43,0,0,1,.47,1.06v.24a1.6,1.6,0,0,1-.77,1.16l-.84.51a2.44,2.44,0,0,1-1.14.31,2.86,2.86,0,0,1-.43,0,2.57,2.57,0,0,1-1.44-.82c-.74-.79-1.54-1.6-2.41-2.42a1.71,1.71,0,0,1-.5-1.23,1.54,1.54,0,0,1,.63-1.3l1.14-.82a.13.13,0,0,0,0-.12s0-.05-.05-.05h-6.56a.08.08,0,0,0-.08.05s0,.07,0,.09l1.28.92a1.63,1.63,0,0,1,.7,1.37,1.42,1.42,0,0,1-.57,1.16,32.53,32.53,0,0,1-4.35,3.07,2.45,2.45,0,0,1-1.1.27,3.59,3.59,0,0,1-.47,0,2.71,2.71,0,0,1-1.41-.85c-.36-.41-.7-.79-1-1.13a.41.41,0,0,0-.43-.14q-4.08.86-8.9,1.81a2.85,2.85,0,0,1-.4,0,1.85,1.85,0,0,1-1.07-.35,2,2,0,0,1-.84-1.29l-.13-.62a2.17,2.17,0,0,1,0-.41,1.78,1.78,0,0,1,.34-1.06A1.73,1.73,0,0,1,85,33c.8-.11,1.65-.25,2.54-.41a.24.24,0,0,0,.23-.27V24.54a.21.21,0,0,0-.23-.24H85.43A1.9,1.9,0,0,1,84,23.71a2,2,0,0,1-.58-1.42v-.24A2,2,0,0,1,84,20.61,1.93,1.93,0,0,1,85.43,20h2.11c.15,0,.23-.09.23-.27V18.4c0-.19-.08-.28-.23-.28H86.33A1.35,1.35,0,0,1,85,16.76v-.14q-.18.14-.27,0a14.7,14.7,0,0,0-1.41-1.78,2,2,0,0,1-.53-1.4A2,2,0,0,1,83.32,12a20.82,20.82,0,0,0,3.45-5,3.47,3.47,0,0,1,1.15-1.34,2.86,2.86,0,0,1,1.63-.51h0a4.93,4.93,0,0,1,3.48,1.33c1.18,1.1,2.19,2.11,3,3a2.21,2.21,0,0,1,.57,1.5,2.44,2.44,0,0,1-.6,1.61l-1,1.23s0,0,0,0a.45.45,0,0,1,.33.14.46.46,0,0,1,.14.34v1.71A1.92,1.92,0,0,1,95,17.54a1.89,1.89,0,0,1-1.39.58H92.29c-.18,0-.27.09-.27.28v1.36a.24.24,0,0,0,.27.27H94a1.92,1.92,0,0,1,1.38.58A2,2,0,0,1,96,22.05v.24a2,2,0,0,1-.59,1.42A1.89,1.89,0,0,1,94,24.3H92.29q-.27,0-.27.24v5.33s0,0,0,0a0,0,0,0,0,0,0c.24-.94.47-1.95.67-3a1.74,1.74,0,0,1,.7-1.13,1.58,1.58,0,0,1,.9-.31,2.85,2.85,0,0,1,.41,0,1.66,1.66,0,0,1,1.07.82,1.75,1.75,0,0,1,.23.85,1.4,1.4,0,0,1-.1.51c0,.16-.2.71-.47,1.64a1.94,1.94,0,0,1-1,1.23,1.89,1.89,0,0,1-1,.28,1.49,1.49,0,0,1-.54-.11l-.73-.17a.14.14,0,0,0-.15,0,.16.16,0,0,0-.09.15v.93c0,.18.09.26.27.23.4-.09,1.11-.22,2.14-.41a1.87,1.87,0,0,1,.34,0,1.61,1.61,0,0,1,1.07.41,1.75,1.75,0,0,1,.7,1.3l.07.65a.14.14,0,0,0,.08.12.12.12,0,0,0,.15,0,24.52,24.52,0,0,0,3.65-2.77.11.11,0,0,0-.07-.17h-.77a1.9,1.9,0,0,1-1.39-.58,1.93,1.93,0,0,1-.58-1.43V15.56a2,2,0,0,1,.58-1.42,1.91,1.91,0,0,1,1.39-.59h3.21q.27,0,.27-.24V7.2a2,2,0,0,1,.59-1.42,1.87,1.87,0,0,1,1.39-.6h.6a1.86,1.86,0,0,1,1.4.6,2,2,0,0,1,.57,1.42v6.11q0,.24.27.24h3.61a1.89,1.89,0,0,1,1.41.59,2,2,0,0,1,.57,1.42ZM83.92,27.65a2.17,2.17,0,0,1,0-.38,1.75,1.75,0,0,1,.23-.85,1.54,1.54,0,0,1,1-.75,1.38,1.38,0,0,1,.43-.07,1.52,1.52,0,0,1,.8.24,1.47,1.47,0,0,1,.71,1c.2.84.36,1.67.5,2.49a2,2,0,0,1,0,.34,1.9,1.9,0,0,1-.3,1,2,2,0,0,1-1.1.82,2.83,2.83,0,0,1-.41,0,1.26,1.26,0,0,1-.76-.27,1.48,1.48,0,0,1-.64-1C84.25,29.45,84.1,28.58,83.92,27.65Zm3.72-13.9a.06.06,0,0,0,0,.1c0,.05.06.07.13.07h5.49s.07,0,.1-.07a.15.15,0,0,0,0-.13,29.54,29.54,0,0,0-3-3.62c-.11-.12-.21-.1-.3,0A34.06,34.06,0,0,1,87.64,13.75ZM102,9.69a1.86,1.86,0,0,1,.17.75,2.07,2.07,0,0,1-.17.78,1.94,1.94,0,0,1-1.13,1.1l-.51.24a1.74,1.74,0,0,1-.67.13,1.54,1.54,0,0,1-.73-.2,1.87,1.87,0,0,1-1-1.09,20.19,20.19,0,0,0-.87-2.09A1.75,1.75,0,0,1,97,7.81a1.75,1.75,0,0,1,1-1.06l.24-.07a2.32,2.32,0,0,1,.83-.17,2.42,2.42,0,0,1,.77.14,2.07,2.07,0,0,1,1.21,1C101.41,8.38,101.73,9.05,102,9.69Zm6.56,8.57q.27,0,.27-.24v-.61q0-.24-.27-.24h-6.12q-.27,0-.27.24V18q0,.24.27.24Zm0,4.54a.24.24,0,0,0,.27-.27v-.62q0-.24-.27-.24h-6.12q-.27,0-.27.24v.62a.24.24,0,0,0,.27.27Zm0,4.47a.24.24,0,0,0,.27-.27v-.62c0-.15-.09-.23-.27-.23h-6.12c-.18,0-.27.08-.27.23V27a.24.24,0,0,0,.27.27Zm1.21-19.49a1.92,1.92,0,0,1,1-1.16,1.8,1.8,0,0,1,.84-.21,2.42,2.42,0,0,1,.63.1l.91.34a1.61,1.61,0,0,1,1,1,1.89,1.89,0,0,1,.14.69,1.92,1.92,0,0,1-.17.78c-.38.8-.73,1.51-1,2.12a2.2,2.2,0,0,1-1.2,1.09,2.56,2.56,0,0,1-.81.14,2.13,2.13,0,0,1-.8-.17l-.27-.1a1.75,1.75,0,0,1-1-1,1.74,1.74,0,0,1,0-1.5C109.28,9.15,109.53,8.46,109.76,7.78Z"/><path class="cls-2" d="M131.07,13.24a5.35,5.35,0,0,1,.58,0,3.42,3.42,0,0,1,1,.17l.95.39a2.19,2.19,0,0,1,1.17,1,2.16,2.16,0,0,1,.31,1.08,3,3,0,0,1,0,.42,45.77,45.77,0,0,1-3.42,11.13,24.72,24.72,0,0,1-4.79,7.09,1.75,1.75,0,0,1-1.26.52h-.17a2.24,2.24,0,0,1-1.44-.7c-.2-.23-.43-.46-.68-.7l-.62-.59a1.54,1.54,0,0,1-.58-1.25,1.71,1.71,0,0,1,.55-1.3q4.47-4,6.39-11.65c0-.05,0-.1,0-.16a.21.21,0,0,0-.14-.08h-4.55a1.9,1.9,0,0,1-1.41-.62,2,2,0,0,1-.6-1.44V15.33a2,2,0,0,1,.6-1.44,1.89,1.89,0,0,1,1.41-.61h6.54A.51.51,0,0,0,131.07,13.24Zm17.34-1.36a2,2,0,0,1,1.3-.84,2.73,2.73,0,0,1,.41,0,1.83,1.83,0,0,1,1.09.38l1.54,1a1.78,1.78,0,0,1,.72,1.29v.18a1.57,1.57,0,0,1-.51,1.18,75.11,75.11,0,0,1-7.36,6.74.27.27,0,0,0-.07.38,24.17,24.17,0,0,0,7.73,8.09,1.55,1.55,0,0,1,.75,1.16v.24a1.59,1.59,0,0,1-.41,1.08c-.2.23-.42.5-.64.8s-.5.61-.72.91a2.14,2.14,0,0,1-1.3.87,1.5,1.5,0,0,1-.45.07,1.72,1.72,0,0,1-1.06-.38,28.09,28.09,0,0,1-8.34-10.57s0,0-.05,0,0,0,0,.07v7.64a9.78,9.78,0,0,1-.5,3.49,3.84,3.84,0,0,1-1.73,2,12.59,12.59,0,0,1-5.3,1.08h-.1a2.15,2.15,0,0,1-1.4-.52,2.92,2.92,0,0,1-1-1.44c-.09-.3-.19-.6-.31-.9a11.41,11.41,0,0,0-.37-1.08,1.28,1.28,0,0,1-.11-.49,1.43,1.43,0,0,1,.21-.74,1.17,1.17,0,0,1,1-.55h0q1.44,0,3.15,0c.61,0,.92-.29.92-.87V6.79a2,2,0,0,1,.6-1.45,1.91,1.91,0,0,1,1.42-.61H139a1.91,1.91,0,0,1,1.42.61,2,2,0,0,1,.6,1.45v3.9a2,2,0,0,0,.06.49,49.64,49.64,0,0,0,2.06,6.21c.06.17.17.19.3.07A41.66,41.66,0,0,0,148.41,11.88Z"/></g></g></g></svg>